<svg width="212" height="62" viewBox="0 0 212 62" fill="none" xmlns="http://www.w3.org/2000/svg">
<g clip-path="url(#clip0_14903_1668)">
<path d="M40.1937 14.5393L27.2437 27.7099C25.455 29.5291 25.4544 32.4781 27.2424 34.2965C29.0304 36.115 31.93 36.1144 33.7187 34.2952L46.6687 21.1246C48.4575 19.3054 48.4581 16.3564 46.6701 14.5379C44.882 12.7195 41.9825 12.7201 40.1937 14.5393Z" fill="url(#paint0_linear_14903_1668)"/>
<path d="M40.1949 40.8795L53.147 27.7068C54.9343 25.8891 57.8358 25.8891 59.6231 27.7068C61.4104 29.5245 61.4104 32.4754 59.6231 34.2932L33.7189 60.6386C31.9316 62.4564 29.0301 62.4564 27.2428 60.6386L1.34243 34.2932C-0.444872 32.4754 -0.444872 29.5245 1.34243 27.7068L27.2428 1.36526C29.0301 -0.452483 31.9316 -0.452483 33.7189 1.36526C35.5062 3.183 35.5062 6.13389 33.7189 7.95163L20.7667 21.1204C15.401 26.5776 15.401 35.4224 20.7667 40.8795C26.1325 46.3367 34.8291 46.3367 40.1949 40.8795Z" fill="url(#paint1_linear_14903_1668)"/>
<path d="M77.051 23.3439V28.0613H95.1755C96.7887 28.0613 98.1001 29.3912 98.1001 31.0358C98.1001 32.6765 96.7925 34.0103 95.1755 34.0103H77.051V38.6648C77.051 40.3409 78.3973 41.7102 80.0453 41.7102H101.025C102.638 41.7102 103.949 43.04 103.949 44.6846C103.949 46.3253 102.642 47.6591 101.025 47.6591H80.0453C75.1902 47.6591 71.252 43.6538 71.252 38.716V23.3439C71.252 18.3982 75.2289 14.3535 80.0917 14.3535H101.025C102.638 14.3535 103.949 15.6834 103.949 17.328C103.949 18.9687 102.642 20.3025 101.025 20.3025H80.0453C78.3973 20.3025 77.051 21.6717 77.051 23.3478V23.3439Z" fill="white"/>
<path d="M111.435 31.2168C111.547 37.0753 116.375 41.7062 122.136 41.7062H135.405C137.018 41.7062 138.33 43.0361 138.33 44.6807C138.33 46.3214 137.022 47.6552 135.405 47.6552H122.167C113.153 47.6552 105.675 40.3331 105.586 31.1657C105.497 21.9078 112.874 14.3535 121.958 14.3535H135.405C137.018 14.3535 138.33 15.6834 138.33 17.328C138.33 18.9687 137.022 20.3025 135.405 20.3025H121.958C116.089 20.3025 111.319 25.2246 111.435 31.2208V31.2168Z" fill="white"/>
<path d="M175.751 17.3241V44.6768C175.751 46.3175 174.443 47.6513 172.826 47.6513C171.213 47.6513 169.901 46.3214 169.901 44.6768V35.352C169.901 33.7113 168.594 32.3775 166.977 32.3775H151.773C150.16 32.3775 148.848 33.7074 148.848 35.352V44.6768C148.848 46.3175 147.541 47.6513 145.924 47.6513C144.31 47.6513 142.999 46.3214 142.999 44.6768V17.3241C142.999 15.6834 144.307 14.3496 145.924 14.3496C147.537 14.3496 148.848 15.6795 148.848 17.3241V23.4619C148.848 25.1026 150.156 26.4364 151.773 26.4364H166.977C168.59 26.4364 169.901 25.1066 169.901 23.4619V17.3241C169.901 15.6834 171.209 14.3496 172.826 14.3496C174.439 14.3496 175.751 15.6795 175.751 17.3241Z" fill="white"/>
<path d="M212 31.0005C212 40.1836 204.657 47.6513 195.628 47.6513C186.598 47.6513 179.256 40.1836 179.256 31.0005C179.256 21.8173 186.598 14.3496 195.628 14.3496C204.657 14.3496 212 21.8173 212 31.0005ZM206.154 31.0005C206.154 25.1026 201.431 20.2947 195.628 20.2947C189.825 20.2947 185.101 25.0987 185.101 31.0005C185.101 36.9022 189.825 41.7063 195.628 41.7063C201.431 41.7063 206.154 36.9022 206.154 31.0005Z" fill="white"/>
</g>
<defs>
<linearGradient id="paint0_linear_14903_1668" x1="25.9022" y1="24.4136" x2="48.0113" y2="24.4136" gradientUnits="userSpaceOnUse">
<stop stop-color="#D55AFF"/>
<stop offset="1" stop-color="#0038B0"/>
</linearGradient>
<linearGradient id="paint1_linear_14903_1668" x1="1.88182e-05" y1="31" x2="60.9616" y2="31" gradientUnits="userSpaceOnUse">
<stop stop-color="#D55AFF"/>
<stop offset="1" stop-color="#0038B0"/>
</linearGradient>
<clipPath id="clip0_14903_1668">
<rect width="212" height="62" fill="white"/>
</clipPath>
</defs>
</svg>
